<svg id="Layer_5" enable-background="new 0 0 64 64" height="512" viewBox="0 0 64 64" width="512" xmlns="http://www.w3.org/2000/svg" xmlns:xlink="http://www.w3.org/1999/xlink"><linearGradient id="SVGID_1_" gradientUnits="userSpaceOnUse" x1="32" x2="32" y1="63" y2="1"><stop offset="0" stop-color="#9f2fff"/><stop offset="1" stop-color="#0bb1d3"/></linearGradient><path d="m31 45h2v2h-2zm-4 2h2v-2h-2zm8 0h2v-2h-2zm28-30v1 28c0 2.757-2.243 5-5 5h-16.72l1.5 6h4.22c1.654 0 3 1.346 3 3v3h-36v-3c0-1.654 1.346-3 3-3h4.22l1.5-6h-16.72c-2.757 0-5-2.243-5-5v-34c0-2.757 2.243-5 5-5h28.53c2.935-3.653 7.431-6 12.47-6 8.822 0 16 7.178 16 16zm-8.16-11.579-1.003 1.737c1.171.816 2.189 1.833 3.005 3.004l1.734-1.001c-.998-1.47-2.265-2.741-3.736-3.74zm-15.84 35.579v-1.216l-2.347-.577-.169-.536c-.181-.57-.424-1.151-.722-1.725l-.259-.498 1.255-2.074-3.133-3.133-2.074 1.255-.498-.259c-.573-.298-1.154-.541-1.725-.722l-.536-.169-.576-2.346h-4.432l-.577 2.347-.536.169c-.57.181-1.151.424-1.725.722l-.498.259-2.074-1.255-3.133 3.133 1.255 2.074-.259.498c-.298.572-.541 1.153-.723 1.727l-.17.534-2.344.576v1.216h4.059c.499-4.493 4.316-8 8.941-8s8.442 3.507 8.941 8zm-13-6c-3.519 0-6.432 2.614-6.92 6h13.84c-.488-3.386-3.401-6-6.92-6zm15 3.216v2.784h16v-14.221c-2.543 2.6-6.084 4.221-10 4.221-7.382 0-13.433-5.747-13.949-13h-2.051v-1c0-1.383.195-2.719.527-4h-24.527v28h4v-2.784l2.794-.687c.123-.332.262-.665.416-.995l-1.492-2.465 5.352-5.352 2.465 1.492c.331-.154.663-.293.995-.416l.686-2.793h7.568l.687 2.794c.332.123.664.262.995.416l2.465-1.492 5.352 5.352-1.492 2.465c.154.331.293.663.416.995zm-7.965-22.216h2.006c.121-1.46.512-2.843 1.11-4.109l-1.743-1.006c-.763 1.565-1.244 3.292-1.373 5.115zm25.914 2h-1.949v-1c0-5.514-4.486-10-10-10s-10 4.486-10 10v1h-1.949c.511 6.15 5.669 11 11.949 11s11.438-4.85 11.949-11zm-6.842-11.846 1.003-1.737c-1.564-.762-3.289-1.239-5.11-1.369v2c1.459.121 2.841.508 4.107 1.106zm-6.107-3.106c-1.821.13-3.546.606-5.11 1.369l1.003 1.737c1.266-.598 2.648-.985 4.107-1.106zm-10.577 6.113 1.734 1.001c.816-1.171 1.834-2.188 3.005-3.004l-1.002-1.737c-1.471.999-2.738 2.27-3.737 3.74zm11.577 49.839h-30c-.552 0-1 .448-1 1v1h32v-1c0-.552-.448-1-1-1zm-7.78-8h-14.44l-1.5 6h17.44zm21.78-33h-.051c-.16 2.246-.851 4.343-1.949 6.174v16.826c0 1.103-.897 2-2 2h-50c-1.103 0-2-.897-2-2v-28c0-1.103.897-2 2-2h25.178c.282-.693.615-1.359.987-2h-27.165c-1.654 0-3 1.346-3 3v34c0 1.654 1.346 3 3 3h52c1.654 0 3-1.346 3-3zm-.035-2c-.129-1.823-.61-3.55-1.373-5.115l-1.743 1.006c.599 1.266.989 2.649 1.11 4.109zm-10.965 6c0 1.302-.839 2.402-2 2.816v2.184h-2v-2.184c-1.161-.414-2-1.514-2-2.816s.839-2.402 2-2.816v-10.184h2v10.184c1.161.414 2 1.514 2 2.816zm-2 0c0-.552-.448-1-1-1s-1 .448-1 1 .448 1 1 1 1-.448 1-1zm-33 0c0 1.654-1.346 3-3 3s-3-1.346-3-3 1.346-3 3-3 3 1.346 3 3zm-2 0c0-.552-.448-1-1-1s-1 .448-1 1 .448 1 1 1 1-.448 1-1zm10 0c0 1.654-1.346 3-3 3s-3-1.346-3-3 1.346-3 3-3 3 1.346 3 3zm-2 0c0-.552-.448-1-1-1s-1 .448-1 1 .448 1 1 1 1-.448 1-1zm10 0c0 1.654-1.346 3-3 3s-3-1.346-3-3 1.346-3 3-3 3 1.346 3 3zm-2 0c0-.552-.448-1-1-1s-1 .448-1 1 .448 1 1 1 1-.448 1-1zm24 17h2v-2h-2zm-2-2h-8v2h8zm4-4h-12v2h12zm-4.571-23.229-.857 1.807c.516.245.994.563 1.422.945l1.332-1.492c-.57-.51-1.209-.933-1.897-1.26zm1.667 4.06c.284.455.505.944.655 1.453l1.918-.568c-.202-.681-.497-1.335-.876-1.943zm-33.096 1.169h-2v2h2zm-6 2h2v-2h-2zm-2-2h-2v2h2z" fill="url(#SVGID_1_)"/></svg>